<svg
  xmlns="http://www.w3.org/2000/svg"
  width="24"
  height="24"
  viewBox="0 0 24 24"
  fill="none"
  >
  <path
    d="M19.112 10.5C18.9526 10.5 18.4187 10.5047 18.2682 10.5141L15.2261 10.5938C15.2102 10.5947 15.1945 10.5913 15.1805 10.5838C15.1665 10.5764 15.1549 10.5652 15.1468 10.5516L9.07278 3.16687C9.03593 3.11811 8.98894 3.07792 8.93503 3.04911C8.88113 3.0203 8.82161 3.00354 8.76059 3H7.50012L10.922 10.5469C10.9302 10.5642 10.9337 10.5833 10.9322 10.6023C10.9308 10.6214 10.9244 10.6397 10.9137 10.6555C10.903 10.6714 10.8884 10.6842 10.8713 10.6926C10.8542 10.7011 10.8351 10.705 10.8161 10.7039L5.11184 10.7883C5.05248 10.7901 4.99353 10.7779 4.93978 10.7526C4.88603 10.7274 4.83898 10.6898 4.80246 10.643L3.06809 8.53359C2.92746 8.35078 2.66403 8.25234 2.43481 8.25234H1.55075C1.49028 8.25234 1.49918 8.30906 1.51559 8.36625L2.44559 11.7141C2.51589 11.8934 2.51589 12.0926 2.44559 12.2719L1.51465 15.6094C1.487 15.7008 1.49028 15.75 1.59762 15.75H2.43762C2.81918 15.75 2.87121 15.7003 3.06621 15.4547L4.8334 13.3125C4.87024 13.266 4.91735 13.2287 4.97103 13.2035C5.0247 13.1783 5.08349 13.1659 5.14278 13.1672L10.7997 13.2938C10.8202 13.2942 10.8404 13.2997 10.8584 13.3097C10.8764 13.3198 10.8917 13.334 10.9029 13.3513C10.9141 13.3686 10.921 13.3884 10.9228 13.4089C10.9247 13.4294 10.9215 13.4501 10.9136 13.4691L7.50012 21H8.74887C8.80977 20.9964 8.86918 20.9797 8.92299 20.951C8.97681 20.9223 9.02375 20.8822 9.06059 20.8336L15.1473 13.4531C15.1656 13.425 15.2411 13.4109 15.2734 13.4109L18.2687 13.4906C18.4234 13.5 18.9526 13.5047 19.1125 13.5047C21.1876 13.5047 22.5001 12.9342 22.5001 12C22.5001 11.0658 21.1932 10.5 19.112 10.5Z"
    stroke="white"
    stroke-width="1.5"
    stroke-linecap="round"
    stroke-linejoin="round"
  />
</svg>